<?xml version="1.0" encoding="UTF-8" standalone="no"?>
<svg
   xmlns:dc="http://purl.org/dc/elements/1.1/"
   xmlns:cc="http://creativecommons.org/ns#"
   xmlns:rdf="http://www.w3.org/1999/02/22-rdf-syntax-ns#"
   xmlns:svg="http://www.w3.org/2000/svg"
   xmlns="http://www.w3.org/2000/svg"
   xmlns:sodipodi="http://sodipodi.sourceforge.net/DTD/sodipodi-0.dtd"
   xmlns:inkscape="http://www.inkscape.org/namespaces/inkscape"
   version="1.1"
   id="svg98"
   width="341.33334"
   height="341.33334"
   viewBox="0 0 341.33334 341.33334"
   sodipodi:docname="dd-logo.svg"
   inkscape:export-filename="/home/johan/workspace/acs/dd-docs-base/docs/assets/dd-favicon.png"
   inkscape:export-xdpi="13.5"
   inkscape:export-ydpi="13.5"
   inkscape:version="1.0.2 (e86c870879, 2021-01-15)">
  <metadata
     id="metadata104">
    <rdf:RDF>
      <cc:Work
         rdf:about="">
        <dc:format>image/svg+xml</dc:format>
        <dc:type
           rdf:resource="http://purl.org/dc/dcmitype/StillImage" />
        <dc:title />
      </cc:Work>
    </rdf:RDF>
  </metadata>
  <defs
     id="defs102">
    <filter
       inkscape:collect="always"
       style="color-interpolation-filters:sRGB"
       id="filter1761"
       x="-0.080809155"
       width="1.1616183"
       y="-0.09184912"
       height="1.1836982">
      <feGaussianBlur
         inkscape:collect="always"
         stdDeviation="11.481153"
         id="feGaussianBlur1763" />
    </filter>
  </defs>
  <sodipodi:namedview
     pagecolor="#ffffff"
     bordercolor="#666666"
     borderopacity="1"
     objecttolerance="10"
     gridtolerance="10"
     guidetolerance="10"
     inkscape:pageopacity="0"
     inkscape:pageshadow="2"
     inkscape:window-width="1920"
     inkscape:window-height="1043"
     id="namedview100"
     showgrid="false"
     inkscape:pagecheckerboard="true"
     inkscape:zoom="1.7857208"
     inkscape:cx="95.266438"
     inkscape:cy="160.09176"
     inkscape:window-x="1920"
     inkscape:window-y="0"
     inkscape:window-maximized="1"
     inkscape:current-layer="layer1"
     inkscape:document-rotation="0" />
  <g
     inkscape:groupmode="layer"
     inkscape:label="Image"
     id="g106"
     style="display:inline">
    <g
       inkscape:groupmode="layer"
       id="layer1"
       inkscape:label="Layer 1"
       style="display:inline">
      <path
         style="fill:#000000;stroke:none;stroke-width:11.2227;stroke-miterlimit:4;stroke-dasharray:none;filter:url(#filter1761)"
         d="m -358.97312,319.91543 c -13.1663,-8.13274 -13.12648,-14.41905 0.23837,-37.63105 35.79732,-62.17262 66.55163,-114.50659 67.30345,-114.5289 2.42066,-0.0719 22.40533,14.87214 32.42431,24.24598 33.02182,30.89548 51.97609,71.48952 56.05936,120.06139 l 0.86869,10.33333 -76.44709,-0.005 c -72.09393,-0.005 -76.67487,-0.14567 -80.44709,-2.47575 z m 164.66666,-0.23846 c 0,-48.42127 26.72905,-103.92302 64.79609,-134.54638 10.19169,-8.1988 24.48139,-17.90919 25.22943,-17.14435 0.22051,0.22547 17.554992,30.09575 38.521042,66.3784 40.896828,70.77367 40.840758,70.64803 35.43244,79.39887 -5.45389,8.82459 -3.50089,8.63267 -87.847162,8.63267 -75.73339,0 -76.13184,-0.0142 -76.13184,-2.71921 z m -30.66667,-137.99771 c -21.10739,-3.3374 -61.33333,-17.97291 -61.33333,-22.31506 0,-1.63698 69.94192,-122.77828 74.26911,-128.636089 3.80196,-5.14682 9.46,-8.331932 14.80084,-8.331932 9.06126,0 10.92182,2.617956 50.59673,71.193731 20.71666,35.80756 37.66667,65.547 37.66667,66.08763 0,1.80548 -25.84695,13.16344 -38.00001,16.6984 -24.66602,7.1746 -53.68613,9.14772 -78.00001,5.30332 z"
         id="path943"
         transform="matrix(0.89104923,0,0,0.89104923,345.47807,16.269461)" />
    </g>
    <g
       inkscape:groupmode="layer"
       id="layer2"
       inkscape:label="Layer 2"
       style="display:inline">
      <path
         style="display:inline;fill:#71be43;fill-opacity:1;stroke:#ffffff;stroke-width:16.8341;stroke-miterlimit:4;stroke-dasharray:none"
         d="m 207.10841,335.24339 c -13.16629,-8.13274 -13.12647,-14.41905 0.23838,-37.63105 35.79732,-62.17262 66.55162,-114.50659 67.30345,-114.5289 2.42065,-0.0719 22.40533,14.87214 32.42431,24.24598 33.02182,30.89548 51.97609,71.48952 56.05936,120.06139 l 0.86869,10.33333 -76.44709,-0.005 c -72.09393,-0.005 -76.67487,-0.14567 -80.4471,-2.47575 z m 164.66667,-0.23846 c 0,-48.42127 26.72905,-103.92302 64.79609,-134.54638 10.19169,-8.1988 24.48139,-17.90919 25.22943,-17.14435 0.22051,0.22547 17.55499,30.09575 38.52104,66.3784 40.89683,70.77367 40.84076,70.64803 35.43244,79.39887 -5.45389,8.82459 -3.50089,8.63267 -87.84716,8.63267 -75.73339,0 -76.13184,-0.0142 -76.13184,-2.71921 z M 341.10841,197.00722 c -21.10739,-3.3374 -61.33333,-17.97291 -61.33333,-22.31506 0,-1.63698 69.94192,-122.778288 74.26911,-128.636097 3.80196,-5.14682 9.46,-8.331932 14.80084,-8.331932 9.06126,0 10.92182,2.617956 50.59673,71.193739 20.71666,35.80756 37.66667,65.547 37.66667,66.08763 0,1.80548 -25.84695,13.16344 -38.00001,16.6984 -24.66602,7.1746 -53.68613,9.14772 -78.00001,5.30332 z"
         id="path116"
         transform="matrix(0.89104923,0,0,0.89104923,-158.92845,2.6114973)" />
    </g>
    <g
       id="g118"
       transform="matrix(0.89104923,0,0,0.89104923,-158.92845,2.6114973)"
       style="fill:#71be43;fill-opacity:1" />
  </g>
</svg>
